<svg xmlns="http://www.w3.org/2000/svg" version="1.1" xmlns:xlink="http://www.w3.org/1999/xlink" viewBox="0 0 200 200"><rect width="200" height="200" fill="url('#gradient')"></rect><defs><linearGradient id="gradient" gradientTransform="rotate(45 0.5 0.5)"><stop offset="0%" stop-color="#f5f7f6"></stop><stop offset="100%" stop-color="#e59c38"></stop></linearGradient></defs><g><g fill="#193540" transform="matrix(4.674613238650774,0,0,4.674613238650774,4.986333369271506,133.24075667772865)" stroke="#405865" stroke-width="0.2"><path d="M12.95-14.22L12.95 0L9.54 0L4.50-8.85L4.50 0L1.07 0L1.07-14.22L4.50-14.22L9.53-5.37L9.53-14.22L12.95-14.22ZM19.79 0L15.12 0L15.12-14.22L19.70-14.22Q21.58-14.22 23.09-13.36Q24.59-12.51 25.43-10.95Q26.28-9.39 26.29-7.46L26.29-7.46L26.29-6.81Q26.29-4.85 25.46-3.31Q24.64-1.76 23.14-0.88Q21.64-0.01 19.79 0L19.79 0ZM19.70-11.57L18.54-11.57L18.54-2.64L19.74-2.64Q21.21-2.64 22.00-3.69Q22.79-4.74 22.79-6.81L22.79-6.81L22.79-7.42Q22.79-9.48 22.00-10.53Q21.21-11.57 19.70-11.57L19.70-11.57ZM36.14-4.81L39.55-4.81Q39.48-3.33 38.75-2.19Q38.02-1.05 36.69-0.43Q35.37 0.20 33.67 0.20L33.67 0.20Q30.87 0.20 29.26-1.63Q27.65-3.46 27.65-6.79L27.65-6.79L27.65-7.49Q27.65-9.58 28.37-11.15Q29.10-12.71 30.47-13.57Q31.84-14.42 33.63-14.42L33.63-14.42Q36.22-14.42 37.79-13.06Q39.37-11.70 39.58-9.31L39.58-9.31L36.16-9.31Q36.12-10.61 35.51-11.17Q34.89-11.74 33.63-11.74L33.63-11.74Q32.35-11.74 31.76-10.78Q31.16-9.82 31.13-7.72L31.13-7.72L31.13-6.72Q31.13-4.44 31.70-3.47Q32.28-2.49 33.67-2.49L33.67-2.49Q34.85-2.49 35.48-3.05Q36.10-3.60 36.14-4.81L36.14-4.81Z"></path></g></g></svg>